<svg xmlns="http://www.w3.org/2000/svg" shape-rendering="geometricPrecision" text-rendering="geometricPrecision" image-rendering="optimizeQuality" fill-rule="evenodd" clip-rule="evenodd" viewBox="0 0 512 459.802"><path fill-rule="nonzero" d="M254.764 70.993c36.098-50.488 86.782-69.375 133.644-64.375 34.247 3.652 66.41 20.134 89.34 46.42 22.916 26.272 36.604 62.237 33.918 104.845-5.18 82.153-71.907 189.608-253.568 298.908l-5.004 3.011-4.945-3.16C66.818 340.774 2.908 231.297.099 148.999c-1.535-44.998 14.988-82.023 40.744-107.936C66.616 15.134 101.681.411 137.192.009c44.341-.501 89.253 21.162 117.572 70.984zM133.229 48.461c-37.811-3.764-77.694 21.183-87.906 58.561-6.974 22.685-.062 32.842 8.515 33.443 12 .842 13.375-9.824 16.518-18.287 15.718-42.324 38.155-65.794 66.17-72.912a97.733 97.733 0 00-3.297-.805zm253.175-22.985c-44.199-4.715-92.546 15.449-124.546 69.208l-9.29 15.608-7.488-16.536c-23.834-52.632-66.166-75.285-107.74-74.816-30.553.346-60.78 13.073-83.059 35.487-22.296 22.43-36.592 54.648-35.25 93.978 2.599 76.176 63.098 178.459 234.346 289.087 171.478-104.367 234.562-204.734 239.357-280.797 2.348-37.246-9.456-68.501-29.242-91.183-19.772-22.668-47.526-36.883-77.088-40.036z"/></svg>